<svg width="23" height="36" viewBox="0 0 23 36" fill="none" xmlns="http://www.w3.org/2000/svg">
<path d="M17.1708 8.928C17.0565 8.80517 16.9931 8.64461 16.9931 8.478C16.9931 8.31139 17.0565 8.15083 17.1708 8.028L22.7817 2.133C22.8862 2.03176 22.9573 1.90193 22.9859 1.76036C23.0145 1.61879 22.9993 1.47202 22.9422 1.3391C22.885 1.20618 22.7886 1.09324 22.6655 1.01494C22.5424 0.936636 22.3982 0.896592 22.2517 0.9H1.82765C1.82765 0.661305 1.73138 0.432387 1.56 0.263604C1.38862 0.0948212 1.15619 0 0.913827 0C0.671465 0 0.439029 0.0948212 0.267654 0.263604C0.0962779 0.432387 0 0.661305 0 0.9L0 35.1C0 35.3387 0.0962779 35.5676 0.267654 35.7364C0.439029 35.9052 0.671465 36 0.913827 36C1.15619 36 1.38862 35.9052 1.56 35.7364C1.73138 35.5676 1.82765 35.3387 1.82765 35.1V16.038H22.2517C22.3945 16.0378 22.5341 15.9965 22.6533 15.919C22.7726 15.8416 22.8661 15.7314 22.9225 15.6022C22.9789 15.473 22.9956 15.3303 22.9706 15.1918C22.9455 15.0534 22.8799 14.9251 22.7817 14.823L17.1708 8.928Z" fill="black"/>
</svg>
