<svg width="36" height="36" viewBox="0 0 36 36" fill="none" xmlns="http://www.w3.org/2000/svg">
<path d="M35.1429 17.1429H30.0771C29.8761 14.2301 28.6305 11.4878 26.5691 9.42017C24.5077 7.3525 21.7693 6.09845 18.8571 5.88857V0.857143C18.8571 0.629814 18.7668 0.411797 18.6061 0.251051C18.4453 0.0903059 18.2273 0 18 0C17.7727 0 17.5547 0.0903059 17.3939 0.251051C17.2332 0.411797 17.1429 0.629814 17.1429 0.857143V5.88857C14.2246 6.09053 11.4779 7.34109 9.40952 9.40952C7.34109 11.4779 6.09053 14.2246 5.88857 17.1429H0.857143C0.629814 17.1429 0.411797 17.2332 0.251051 17.3939C0.0903059 17.5547 0 17.7727 0 18C0 18.2273 0.0903059 18.4453 0.251051 18.6061C0.411797 18.7668 0.629814 18.8571 0.857143 18.8571H5.88857C6.09845 21.7693 7.3525 24.5077 9.42017 26.5691C11.4878 28.6305 14.2301 29.8761 17.1429 30.0771V35.1429C17.1429 35.3702 17.2332 35.5882 17.3939 35.749C17.5547 35.9097 17.7727 36 18 36C18.2273 36 18.4453 35.9097 18.6061 35.749C18.7668 35.5882 18.8571 35.3702 18.8571 35.1429V30.0771C21.7638 29.8682 24.4979 28.6191 26.5585 26.5585C28.6191 24.4979 29.8682 21.7638 30.0771 18.8571H35.1429C35.3702 18.8571 35.5882 18.7668 35.749 18.6061C35.9097 18.4453 36 18.2273 36 18C36 17.7727 35.9097 17.5547 35.749 17.3939C35.5882 17.2332 35.3702 17.1429 35.1429 17.1429Z" fill="black"/>
</svg>
