<svg width="36" height="36" viewBox="0 0 36 36" fill="none" xmlns="http://www.w3.org/2000/svg">
<path d="M35.1429 17.1429H30.9343C30.7494 14.2906 29.6286 11.579 27.7457 9.42857L30.6943 6.48C30.7746 6.40032 30.8384 6.30552 30.8819 6.20107C30.9254 6.09661 30.9478 5.98458 30.9478 5.87143C30.9478 5.75828 30.9254 5.64624 30.8819 5.54179C30.8384 5.43734 30.7746 5.34254 30.6943 5.26286C30.5337 5.10321 30.3164 5.01361 30.09 5.01361C29.8636 5.01361 29.6463 5.10321 29.4857 5.26286L26.5714 8.22C24.4262 6.32876 21.7116 5.20675 18.8571 5.03143V0.857143C18.8571 0.629814 18.7668 0.411797 18.6061 0.251051C18.4453 0.0903059 18.2273 0 18 0C17.7727 0 17.5547 0.0903059 17.3939 0.251051C17.2332 0.411797 17.1429 0.629814 17.1429 0.857143V5.03143C14.2897 5.21252 11.5769 6.3338 9.42857 8.22L6.48 5.26286C6.3186 5.10145 6.09969 5.01078 5.87143 5.01078C5.64317 5.01078 5.42426 5.10145 5.26286 5.26286C5.10145 5.42426 5.01078 5.64317 5.01078 5.87143C5.01078 6.09969 5.10145 6.3186 5.26286 6.48L8.22 9.42857C6.3338 11.5769 5.21252 14.2897 5.03143 17.1429H0.857143C0.629814 17.1429 0.411797 17.2332 0.251051 17.3939C0.0903059 17.5547 0 17.7727 0 18C0 18.2273 0.0903059 18.4453 0.251051 18.6061C0.411797 18.7668 0.629814 18.8571 0.857143 18.8571H5.03143C5.20675 21.7116 6.32876 24.4262 8.22 26.5714L5.26286 29.4857C5.10321 29.6463 5.01361 29.8636 5.01361 30.09C5.01361 30.3164 5.10321 30.5337 5.26286 30.6943C5.34224 30.7753 5.43691 30.8397 5.54137 30.8838C5.64584 30.928 5.75802 30.951 5.87143 30.9514C5.98483 30.951 6.09702 30.928 6.20148 30.8838C6.30595 30.8397 6.40062 30.7753 6.48 30.6943L9.42857 27.7457C11.579 29.6286 14.2906 30.7494 17.1429 30.9343V35.1429C17.1429 35.3702 17.2332 35.5882 17.3939 35.749C17.5547 35.9097 17.7727 36 18 36C18.2273 36 18.4453 35.9097 18.6061 35.749C18.7668 35.5882 18.8571 35.3702 18.8571 35.1429V30.9343C21.7101 30.7526 24.4227 29.6314 26.5714 27.7457L29.5286 30.6943C29.6892 30.8539 29.9064 30.9435 30.1329 30.9435C30.3593 30.9435 30.5765 30.8539 30.7371 30.6943C30.8968 30.5337 30.9864 30.3164 30.9864 30.09C30.9864 29.8636 30.8968 29.6463 30.7371 29.4857L27.7457 26.5714C29.6314 24.4227 30.7526 21.7101 30.9343 18.8571H35.1429C35.3702 18.8571 35.5882 18.7668 35.749 18.6061C35.9097 18.4453 36 18.2273 36 18C36 17.7727 35.9097 17.5547 35.749 17.3939C35.5882 17.2332 35.3702 17.1429 35.1429 17.1429ZM18 29.2629C15.7676 29.2662 13.5843 28.6071 11.7267 27.369C9.86911 26.1308 8.42067 24.3693 7.56479 22.3075C6.70891 20.2456 6.48408 17.9762 6.91878 15.7865C7.35347 13.5967 8.42814 11.5853 10.0067 10.0067C11.5853 8.42814 13.5967 7.35347 15.7865 6.91878C17.9762 6.48408 20.2456 6.70891 22.3075 7.56479C24.3693 8.42067 26.1308 9.86911 27.369 11.7267C28.6071 13.5843 29.2662 15.7676 29.2629 18C29.2561 20.985 28.0673 23.8458 25.9565 25.9565C23.8458 28.0673 20.985 29.2561 18 29.2629Z" fill="black"/>
<path d="M22.1486 10.7742C21.0413 10.1326 19.8012 9.75465 18.5243 9.66973C17.2474 9.58481 15.9681 9.79518 14.7857 10.2845C13.6032 10.7738 12.5494 11.529 11.7059 12.4914C10.8624 13.4537 10.252 14.5975 9.92192 15.8339C9.59185 17.0703 9.55103 18.3661 9.80263 19.6208C10.0542 20.8756 10.5915 22.0555 11.3727 23.069C12.154 24.0826 13.1582 24.9025 14.3075 25.4653C15.4568 26.0281 16.7203 26.3186 18 26.3142C19.4629 26.3105 20.8992 25.9234 22.1657 25.1913C20.9001 24.4609 19.8491 23.4102 19.1184 22.1448C18.3877 20.8794 18.003 19.444 18.003 17.9827C18.003 16.5215 18.3877 15.086 19.1184 13.8207C19.8491 12.5553 20.9001 11.5046 22.1657 10.7742H22.1486Z" fill="black"/>
</svg>
