<svg width="25" height="25" viewBox="0 0 25 25" fill="none" xmlns="http://www.w3.org/2000/svg">
    <path d="M12.5 0C10.0277 0 7.61099 0.733112 5.55538 2.10663C3.49976 3.48015 1.89761 5.43238 0.951511 7.71645C0.00541603 10.0005 -0.242126 12.5139 0.24019 14.9386C0.722505 17.3634 1.91301 19.5907 3.66117 21.3388C5.40933 23.087 7.63661 24.2775 10.0614 24.7598C12.4861 25.2421 14.9995 24.9946 17.2835 24.0485C19.5676 23.1024 21.5199 21.5002 22.8934 19.4446C24.2669 17.389 25 14.9723 25 12.5C24.996 9.18601 23.6778 6.00889 21.3344 3.66555C18.9911 1.3222 15.814 0.00396964 12.5 0V0ZM13.4825 12.5C13.4825 12.7606 13.379 13.0105 13.1947 13.1947C13.0105 13.379 12.7606 13.4825 12.5 13.4825H7.2625C7.00193 13.4825 6.75203 13.379 6.56777 13.1947C6.38352 13.0105 6.28 12.7606 6.28 12.5C6.28 12.2394 6.38352 11.9895 6.56777 11.8053C6.75203 11.621 7.00193 11.5175 7.2625 11.5175H11.5125V4.9575C11.5125 4.69692 11.616 4.44702 11.8003 4.26277C11.9845 4.07851 12.2344 3.975 12.495 3.975C12.7556 3.975 13.0055 4.07851 13.1897 4.26277C13.374 4.44702 13.4775 4.69692 13.4775 4.9575L13.4825 12.5Z" fill="currentColor" />
</svg>