<svg width="37" height="37" viewBox="0 0 37 37" fill="none" xmlns="http://www.w3.org/2000/svg">
    <path d="M35.1764 17.1592H30.1058C29.9046 14.2437 28.6578 11.4988 26.5944 9.42915C24.5311 7.35951 21.79 6.10427 18.8751 5.89419V0.85796C18.8751 0.630415 18.7847 0.412189 18.6238 0.251291C18.4629 0.090392 18.2447 0 18.0172 0C17.7896 0 17.5714 0.090392 17.4105 0.251291C17.2496 0.412189 17.1592 0.630415 17.1592 0.85796V5.89419C14.2382 6.09634 11.4889 7.34809 9.41849 9.41849C7.34809 11.4889 6.09634 14.2382 5.89419 17.1592H0.85796C0.630415 17.1592 0.412189 17.2496 0.251291 17.4105C0.090392 17.5714 0 17.7896 0 18.0172C0 18.2447 0.090392 18.4629 0.251291 18.6238C0.412189 18.7847 0.630415 18.8751 0.85796 18.8751H5.89419C6.10427 21.79 7.35951 24.5311 9.42915 26.5944C11.4988 28.6578 14.2437 29.9046 17.1592 30.1058V35.1764C17.1592 35.4039 17.2496 35.6221 17.4105 35.783C17.5714 35.9439 17.7896 36.0343 18.0172 36.0343C18.2447 36.0343 18.4629 35.9439 18.6238 35.783C18.7847 35.6221 18.8751 35.4039 18.8751 35.1764V30.1058C21.7845 29.8967 24.5212 28.6464 26.5838 26.5838C28.6464 24.5212 29.8967 21.7845 30.1058 18.8751H35.1764C35.4039 18.8751 35.6221 18.7847 35.783 18.6238C35.9439 18.4629 36.0343 18.2447 36.0343 18.0172C36.0343 17.7896 35.9439 17.5714 35.783 17.4105C35.6221 17.2496 35.4039 17.1592 35.1764 17.1592Z" fill="currentColor" />
</svg>