<svg width="26" height="31" viewBox="0 0 26 31" fill="none" xmlns="http://www.w3.org/2000/svg">
<path d="M12.9847 5.04349V0.48775C12.9836 0.391176 12.9541 0.297051 12.8998 0.217043C12.8455 0.137036 12.7689 0.0746633 12.6793 0.0376576C12.5898 0.000651934 12.4914 -0.00935991 12.3962 0.00886316C12.301 0.0270862 12.2133 0.0727429 12.1439 0.140174L7.1613 5.12107C7.06517 5.21651 6.98889 5.32992 6.93684 5.4548C6.88479 5.57969 6.858 5.71358 6.858 5.84881C6.858 5.98403 6.88479 6.11793 6.93684 6.24281C6.98889 6.3677 7.06517 6.48111 7.1613 6.57655L12.1439 11.5419C12.2131 11.6092 12.3005 11.6548 12.3954 11.6731C12.4903 11.6915 12.5885 11.6817 12.6779 11.6451C12.7673 11.6085 12.844 11.5466 12.8985 11.467C12.9531 11.3875 12.983 11.2938 12.9847 11.1975V7.12584C15.1061 7.12766 17.1811 7.74461 18.9567 8.90144C20.7323 10.0583 22.1317 11.705 22.9843 13.6408C23.8369 15.5766 24.1058 17.7178 23.7582 19.8033C23.4107 21.8888 22.4616 23.8284 21.0269 25.3856C19.5922 26.9429 17.7337 28.0504 15.6782 28.5732C13.6227 29.0959 11.459 29.0113 9.45089 28.3297C7.44281 27.648 5.67716 26.3988 4.36927 24.7343C3.06139 23.0698 2.26779 21.0621 2.08527 18.9559C2.06038 18.6996 1.94013 18.462 1.74821 18.2896C1.55628 18.1173 1.30658 18.0229 1.04826 18.0248C0.901735 18.0254 0.756946 18.0565 0.623165 18.1161C0.489383 18.1757 0.369557 18.2624 0.271355 18.3708C0.173154 18.4792 0.0987416 18.6068 0.0528811 18.7455C0.0070205 18.8842 -0.00927771 19.0309 0.00502968 19.1762C0.229729 21.6835 1.18129 24.0716 2.7438 26.0496C4.30631 28.0275 6.41232 29.5099 8.80529 30.3162C11.1982 31.1225 13.7749 31.2179 16.2213 30.5908C18.6677 29.9636 20.8782 28.641 22.5837 26.784C24.2892 24.9271 25.4159 22.6159 25.8267 20.1321C26.2374 17.6483 25.9145 15.0991 24.8971 12.7949C23.8798 10.4908 22.212 8.53122 20.0969 7.15493C17.9818 5.77864 15.5108 5.04504 12.9847 5.04349Z" fill="white"/>
</svg>
